<svg width="612" height="392" viewBox="0 0 612 392" fill="none" xmlns="http://www.w3.org/2000/svg">
<g clip-path="url(#clip0)">
<path d="M611.873 0.34668H0.411377V391.954H611.873V0.34668Z" fill="#343434"/>
<path d="M594.388 49.4639H17.896V368.786H594.388V49.4639Z" fill="#262626"/>
<path d="M611.612 0H0.150269V25.9771H611.612V0Z" fill="url(#paint0_linear)"/>
<path d="M19.4544 18.0956C22.1135 18.0956 24.2691 15.94 24.2691 13.281C24.2691 10.6219 22.1135 8.46631 19.4544 8.46631C16.7954 8.46631 14.6398 10.6219 14.6398 13.281C14.6398 15.94 16.7954 18.0956 19.4544 18.0956Z" fill="white"/>
<path d="M37.7297 18.0956C40.3888 18.0956 42.5444 15.94 42.5444 13.281C42.5444 10.6219 40.3888 8.46631 37.7297 8.46631C35.0706 8.46631 32.915 10.6219 32.915 13.281C32.915 15.94 35.0706 18.0956 37.7297 18.0956Z" fill="white"/>
<path d="M56.0049 18.0956C58.6639 18.0956 60.8195 15.94 60.8195 13.281C60.8195 10.6219 58.6639 8.46631 56.0049 8.46631C53.3458 8.46631 51.1902 10.6219 51.1902 13.281C51.1902 15.94 53.3458 18.0956 56.0049 18.0956Z" fill="white"/>
<path d="M431.267 79.3725H243.58C243.179 79.3197 242.811 79.1231 242.545 78.8192C242.278 78.5154 242.131 78.125 242.131 77.7209C242.131 77.3168 242.278 76.9265 242.545 76.6226C242.811 76.3188 243.179 76.1221 243.58 76.0693H431.267C431.667 76.1221 432.035 76.3188 432.302 76.6226C432.568 76.9265 432.715 77.3168 432.715 77.7209C432.715 78.125 432.568 78.5154 432.302 78.8192C432.035 79.1231 431.667 79.3197 431.267 79.3725Z" fill="#CCCCCC"/>
<path d="M301.218 97.54H181.886C181.486 97.4872 181.118 97.2905 180.851 96.9867C180.585 96.6828 180.438 96.2925 180.438 95.8884C180.438 95.4843 180.585 95.094 180.851 94.7901C181.118 94.4863 181.486 94.2896 181.886 94.2368H301.218C301.619 94.2896 301.987 94.4863 302.253 94.7901C302.519 95.094 302.666 95.4843 302.666 95.8884C302.666 96.2925 302.519 96.6828 302.253 96.9867C301.987 97.2905 301.619 97.4872 301.218 97.54Z" fill="#CCCCCC"/>
<path d="M431.267 97.8705H311.935C311.534 97.8177 311.166 97.6211 310.9 97.3172C310.634 97.0134 310.487 96.6231 310.487 96.219C310.487 95.8149 310.634 95.4245 310.9 95.1207C311.166 94.8168 311.534 94.6202 311.935 94.5674H431.267C431.668 94.6202 432.035 94.8168 432.302 95.1207C432.568 95.4245 432.715 95.8149 432.715 96.219C432.715 96.6231 432.568 97.0134 432.302 97.3172C432.035 97.6211 431.668 97.8177 431.267 97.8705H431.267Z" fill="#CCCCCC"/>
<path d="M301.508 115.707H182.176C181.775 115.655 181.408 115.458 181.141 115.154C180.875 114.85 180.728 114.46 180.728 114.056C180.728 113.652 180.875 113.261 181.141 112.958C181.408 112.654 181.775 112.457 182.176 112.404H301.508C301.909 112.457 302.276 112.654 302.543 112.958C302.809 113.261 302.956 113.652 302.956 114.056C302.956 114.46 302.809 114.85 302.543 115.154C302.276 115.458 301.909 115.655 301.508 115.707Z" fill="#CCCCCC"/>
<path d="M301.797 133.875H182.466C182.065 133.822 181.697 133.626 181.431 133.322C181.164 133.018 181.017 132.627 181.017 132.223C181.017 131.819 181.164 131.429 181.431 131.125C181.697 130.821 182.065 130.625 182.466 130.572H301.797C302.198 130.625 302.566 130.821 302.832 131.125C303.099 131.429 303.246 131.819 303.246 132.223C303.246 132.627 303.099 133.018 302.832 133.322C302.566 133.626 302.198 133.822 301.797 133.875Z" fill="#CCCCCC"/>
<path d="M355.96 115.707H321.783C321.382 115.655 321.014 115.458 320.748 115.154C320.481 114.85 320.335 114.46 320.335 114.056C320.335 113.652 320.481 113.261 320.748 112.958C321.014 112.654 321.382 112.457 321.783 112.404H355.96C356.361 112.457 356.729 112.654 356.995 112.958C357.262 113.261 357.408 113.652 357.408 114.056C357.408 114.46 357.262 114.85 356.995 115.154C356.729 115.458 356.361 115.655 355.96 115.707Z" fill="#CCCCCC"/>
<path d="M355.96 133.545H321.783C321.382 133.492 321.014 133.295 320.748 132.992C320.481 132.688 320.335 132.297 320.335 131.893C320.335 131.489 320.481 131.099 320.748 130.795C321.014 130.491 321.382 130.295 321.783 130.242H355.96C356.361 130.295 356.729 130.491 356.995 130.795C357.262 131.099 357.408 131.489 357.408 131.893C357.408 132.297 357.262 132.688 356.995 132.992C356.729 133.295 356.361 133.492 355.96 133.545Z" fill="#CCCCCC"/>
<path d="M413.309 133.545H379.132C378.731 133.492 378.363 133.295 378.097 132.992C377.83 132.688 377.683 132.297 377.683 131.893C377.683 131.489 377.83 131.099 378.097 130.795C378.363 130.491 378.731 130.295 379.132 130.242H413.309C413.71 130.295 414.078 130.491 414.344 130.795C414.61 131.099 414.757 131.489 414.757 131.893C414.757 132.297 414.61 132.688 414.344 132.992C414.078 133.295 413.71 133.492 413.309 133.545Z" fill="#CCCCCC"/>
<path d="M215.195 79.3725H181.017C180.617 79.3197 180.249 79.1231 179.982 78.8192C179.716 78.5154 179.569 78.125 179.569 77.7209C179.569 77.3168 179.716 76.9265 179.982 76.6226C180.249 76.3188 180.617 76.1221 181.017 76.0693H215.195C215.596 76.1221 215.963 76.3188 216.23 76.6226C216.496 76.9265 216.643 77.3168 216.643 77.7209C216.643 78.125 216.496 78.5154 216.23 78.8192C215.963 79.1231 215.596 79.3197 215.195 79.3725Z" fill="#CCCCCC"/>
<path d="M300.784 287.678H181.452C181.051 287.625 180.683 287.429 180.417 287.125C180.151 286.821 180.004 286.431 180.004 286.027C180.004 285.622 180.151 285.232 180.417 284.928C180.683 284.624 181.051 284.428 181.452 284.375H300.784C301.185 284.428 301.552 284.624 301.819 284.928C302.085 285.232 302.232 285.622 302.232 286.027C302.232 286.431 302.085 286.821 301.819 287.125C301.552 287.429 301.185 287.625 300.784 287.678H300.784Z" fill="#CCCCCC"/>
<path d="M300.204 324.013H180.872C180.472 323.96 180.104 323.764 179.838 323.46C179.571 323.156 179.424 322.766 179.424 322.362C179.424 321.957 179.571 321.567 179.838 321.263C180.104 320.959 180.472 320.763 180.872 320.71H300.205C300.605 320.763 300.973 320.959 301.239 321.263C301.506 321.567 301.653 321.957 301.653 322.362C301.653 322.766 301.506 323.156 301.239 323.46C300.973 323.764 300.605 323.96 300.205 324.013H300.204Z" fill="#CCCCCC"/>
<path d="M300.494 342.181H181.162C180.762 342.128 180.394 341.931 180.127 341.627C179.861 341.324 179.714 340.933 179.714 340.529C179.714 340.125 179.861 339.735 180.127 339.431C180.394 339.127 180.762 338.93 181.162 338.877H300.494C300.895 338.93 301.263 339.127 301.529 339.431C301.796 339.735 301.942 340.125 301.942 340.529C301.942 340.933 301.796 341.324 301.529 341.627C301.263 341.931 300.895 342.128 300.494 342.181H300.494Z" fill="#CCCCCC"/>
<path d="M351.471 324.344H317.293C316.893 324.291 316.525 324.094 316.258 323.79C315.992 323.487 315.845 323.096 315.845 322.692C315.845 322.288 315.992 321.898 316.258 321.594C316.525 321.29 316.893 321.093 317.293 321.041H351.471C351.871 321.093 352.239 321.29 352.506 321.594C352.772 321.898 352.919 322.288 352.919 322.692C352.919 323.096 352.772 323.487 352.506 323.79C352.239 324.094 351.871 324.291 351.471 324.344Z" fill="#CCCCCC"/>
<path d="M351.471 342.181H317.293C316.893 342.128 316.525 341.931 316.258 341.627C315.992 341.324 315.845 340.933 315.845 340.529C315.845 340.125 315.992 339.735 316.258 339.431C316.525 339.127 316.893 338.93 317.293 338.877H351.471C351.871 338.93 352.239 339.127 352.506 339.431C352.772 339.735 352.919 340.125 352.919 340.529C352.919 340.933 352.772 341.324 352.506 341.627C352.239 341.931 351.871 342.128 351.471 342.181Z" fill="#CCCCCC"/>
<path d="M408.82 324.344H374.642C374.241 324.291 373.874 324.094 373.607 323.79C373.341 323.487 373.194 323.096 373.194 322.692C373.194 322.288 373.341 321.898 373.607 321.594C373.874 321.29 374.241 321.093 374.642 321.041H408.82C409.22 321.093 409.588 321.29 409.855 321.594C410.121 321.898 410.268 322.288 410.268 322.692C410.268 323.096 410.121 323.487 409.855 323.79C409.588 324.094 409.22 324.291 408.82 324.344Z" fill="#CCCCCC"/>
<path d="M431.412 305.846H243.725C243.324 305.793 242.956 305.596 242.69 305.292C242.423 304.989 242.276 304.598 242.276 304.194C242.276 303.79 242.423 303.4 242.69 303.096C242.956 302.792 243.324 302.595 243.725 302.542H431.412C431.812 302.595 432.18 302.792 432.447 303.096C432.713 303.4 432.86 303.79 432.86 304.194C432.86 304.598 432.713 304.989 432.447 305.292C432.18 305.596 431.812 305.793 431.412 305.846Z" fill="#CCCCCC"/>
<path d="M215.34 305.846H181.162C180.762 305.793 180.394 305.596 180.127 305.292C179.861 304.989 179.714 304.598 179.714 304.194C179.714 303.79 179.861 303.4 180.127 303.096C180.394 302.792 180.762 302.595 181.162 302.542H215.34C215.74 302.595 216.108 302.792 216.375 303.096C216.641 303.4 216.788 303.79 216.788 304.194C216.788 304.598 216.641 304.989 216.375 305.292C216.108 305.596 215.74 305.793 215.34 305.846Z" fill="#CCCCCC"/>
<path d="M271.965 163.221L225.622 208.985L271.965 254.748L282.392 244.321L247.345 209.274L282.681 173.938L271.965 163.221Z" fill="#E6E6E6"/>
<path d="M340.32 163.221L386.662 208.985L340.32 254.748L329.893 244.321L364.939 209.274L329.603 173.938L340.32 163.221Z" fill="#E6E6E6"/>
<path d="M271.965 163.221L225.622 208.985L271.965 254.748L282.392 244.321L247.345 209.274L282.681 173.938L271.965 163.221Z" fill="url(#paint1_linear)"/>
<path d="M340.32 163.221L386.662 208.985L340.32 254.748L329.893 244.321L364.939 209.274L329.603 173.938L340.32 163.221Z" fill="url(#paint2_linear)"/>
</g>
<defs>
<linearGradient id="paint0_linear" x1="0.150269" y1="0" x2="25.712" y2="136.055" gradientUnits="userSpaceOnUse">
<stop stop-color="#B987F3"/>
<stop offset="1" stop-color="#71C6EE"/>
</linearGradient>
<linearGradient id="paint1_linear" x1="225.622" y1="163.221" x2="294.22" y2="172.891" gradientUnits="userSpaceOnUse">
<stop stop-color="#B987F3"/>
<stop offset="1" stop-color="#71C6EE"/>
</linearGradient>
<linearGradient id="paint2_linear" x1="329.603" y1="163.221" x2="398.201" y2="172.891" gradientUnits="userSpaceOnUse">
<stop stop-color="#B987F3"/>
<stop offset="1" stop-color="#71C6EE"/>
</linearGradient>
<clipPath id="clip0">
<rect width="612" height="392" rx="20" fill="white"/>
</clipPath>
</defs>
</svg>
